<?xml version="1.0" encoding="UTF-8" standalone="no"?>
<!-- Created with Inkscape (http://www.inkscape.org/) -->

<svg
   xmlns:dc="http://purl.org/dc/elements/1.1/"
   xmlns:cc="http://creativecommons.org/ns#"
   xmlns:rdf="http://www.w3.org/1999/02/22-rdf-syntax-ns#"
   xmlns:svg="http://www.w3.org/2000/svg"
   xmlns="http://www.w3.org/2000/svg"
   xmlns:sodipodi="http://sodipodi.sourceforge.net/DTD/sodipodi-0.dtd"
   xmlns:inkscape="http://www.inkscape.org/namespaces/inkscape"
   width="1000"
   height="576.91553"
   id="svg5557"
   version="1.1"
   inkscape:version="0.48.5 r10040"
   sodipodi:docname="A.svg">
  <defs
     id="defs5559">
    <clipPath
       clipPathUnits="userSpaceOnUse"
       id="clipPath5305">
      <path
         inkscape:connector-curvature="0"
         d="m 319.947,231.533 40.378,0 0,23.377 -40.378,0 0,-23.377 z"
         id="path5307" />
    </clipPath>
    <clipPath
       clipPathUnits="userSpaceOnUse"
       id="clipPath5345">
      <path
         inkscape:connector-curvature="0"
         d="m 319.947,202.04 40.378,0 0,23.377 -40.378,0 0,-23.377 z"
         id="path5347" />
    </clipPath>
    <clipPath
       clipPathUnits="userSpaceOnUse"
       id="clipPath4985">
      <path
         inkscape:connector-curvature="0"
         d="m 147.434,153.742 50.709,0 0,5.549 -50.709,0 0,-5.549 z"
         id="path4987" />
    </clipPath>
    <clipPath
       clipPathUnits="userSpaceOnUse"
       id="clipPath4993">
      <path
         inkscape:connector-curvature="0"
         d="m 147.355,159.371 50.868,0 0,-5.709 -50.868,0 0,5.709 z"
         id="path4995" />
    </clipPath>
    <clipPath
       clipPathUnits="userSpaceOnUse"
       id="clipPath4997">
      <path
         inkscape:connector-curvature="0"
         d="m 147.439,159.292 50.704,0 0,-5.549 -50.704,0 0,5.549 z"
         id="path4999" />
    </clipPath>
    <clipPath
       clipPathUnits="userSpaceOnUse"
       id="clipPath4303">
      <path
         inkscape:connector-curvature="0"
         d="m 0,0 419.528,0 0,595.276 L 0,595.276 0,0 z"
         id="path4305" />
    </clipPath>
    <clipPath
       clipPathUnits="userSpaceOnUse"
       id="clipPath4311">
      <path
         inkscape:connector-curvature="0"
         d="m 167.024,454.265 19.987,0 0,-23.333 -19.987,0 0,23.333 z"
         id="path4313" />
    </clipPath>
    <clipPath
       clipPathUnits="userSpaceOnUse"
       id="clipPath4315">
      <path
         inkscape:connector-curvature="0"
         d="m 168.024,431.932 17.987,0 0,21.332 -17.987,0 0,-21.332 z"
         id="path4317" />
    </clipPath>
    <clipPath
       clipPathUnits="userSpaceOnUse"
       id="clipPath4319">
      <path
         inkscape:connector-curvature="0"
         d="m 168.024,431.932 17.987,0 0,21.332 -17.987,0 0,-21.332 z"
         id="path4321" />
    </clipPath>
    <clipPath
       clipPathUnits="userSpaceOnUse"
       id="clipPath4323">
      <path
         inkscape:connector-curvature="0"
         d="m 168.024,431.932 17.987,0 0,21.332 -17.987,0 0,-21.332 z"
         id="path4325" />
    </clipPath>
    <clipPath
       clipPathUnits="userSpaceOnUse"
       id="clipPath4327">
      <path
         inkscape:connector-curvature="0"
         d="m 168.024,431.932 17.987,0 0,21.332 -17.987,0 0,-21.332 z"
         id="path4329" />
    </clipPath>
    <clipPath
       clipPathUnits="userSpaceOnUse"
       id="clipPath4331">
      <path
         inkscape:connector-curvature="0"
         d="m 168.024,431.932 17.987,0 0,21.332 -17.987,0 0,-21.332 z"
         id="path4333" />
    </clipPath>
    <clipPath
       clipPathUnits="userSpaceOnUse"
       id="clipPath4335">
      <path
         inkscape:connector-curvature="0"
         d="m 168.024,431.932 17.987,0 0,21.332 -17.987,0 0,-21.332 z"
         id="path4337" />
    </clipPath>
    <clipPath
       clipPathUnits="userSpaceOnUse"
       id="clipPath4339">
      <path
         inkscape:connector-curvature="0"
         d="m 168.024,431.932 17.987,0 0,21.332 -17.987,0 0,-21.332 z"
         id="path4341" />
    </clipPath>
    <clipPath
       clipPathUnits="userSpaceOnUse"
       id="clipPath4343">
      <path
         inkscape:connector-curvature="0"
         d="m 168.024,431.932 17.987,0 0,21.332 -17.987,0 0,-21.332 z"
         id="path4345" />
    </clipPath>
    <clipPath
       clipPathUnits="userSpaceOnUse"
       id="clipPath4347">
      <path
         inkscape:connector-curvature="0"
         d="m 168.024,431.932 17.987,0 0,21.332 -17.987,0 0,-21.332 z"
         id="path4349" />
    </clipPath>
    <clipPath
       clipPathUnits="userSpaceOnUse"
       id="clipPath4351">
      <path
         inkscape:connector-curvature="0"
         d="m 168.024,431.932 17.987,0 0,21.332 -17.987,0 0,-21.332 z"
         id="path4353" />
    </clipPath>
    <clipPath
       clipPathUnits="userSpaceOnUse"
       id="clipPath4355">
      <path
         inkscape:connector-curvature="0"
         d="m 168.024,431.932 17.987,0 0,21.332 -17.987,0 0,-21.332 z"
         id="path4357" />
    </clipPath>
    <clipPath
       clipPathUnits="userSpaceOnUse"
       id="clipPath4359">
      <path
         inkscape:connector-curvature="0"
         d="m 168.024,431.932 17.987,0 0,21.332 -17.987,0 0,-21.332 z"
         id="path4361" />
    </clipPath>
    <clipPath
       clipPathUnits="userSpaceOnUse"
       id="clipPath4363">
      <path
         inkscape:connector-curvature="0"
         d="m 168.024,431.932 17.987,0 0,21.332 -17.987,0 0,-21.332 z"
         id="path4365" />
    </clipPath>
    <clipPath
       clipPathUnits="userSpaceOnUse"
       id="clipPath4367">
      <path
         inkscape:connector-curvature="0"
         d="m 168.024,431.932 17.987,0 0,21.332 -17.987,0 0,-21.332 z"
         id="path4369" />
    </clipPath>
    <clipPath
       clipPathUnits="userSpaceOnUse"
       id="clipPath4371">
      <path
         inkscape:connector-curvature="0"
         d="m 168.024,431.932 17.987,0 0,21.332 -17.987,0 0,-21.332 z"
         id="path4373" />
    </clipPath>
    <linearGradient
       x1="0"
       y1="0"
       x2="1"
       y2="0"
       gradientUnits="userSpaceOnUse"
       gradientTransform="matrix(47.141842,-17.158227,-17.158227,-47.141842,152.20667,421.1261)"
       spreadMethod="pad"
       id="linearGradient4617">
      <stop
         style="stop-opacity:1;stop-color:#f8b81d"
         offset="0"
         id="stop4619" />
      <stop
         style="stop-opacity:1;stop-color:#f89a22"
         offset="1"
         id="stop4621" />
    </linearGradient>
    <clipPath
       clipPathUnits="userSpaceOnUse"
       id="clipPath4641">
      <path
         inkscape:connector-curvature="0"
         d="m 162.707,363.098 26.607,0 0,20.275 -26.607,0 0,-20.275 z"
         id="path4643" />
    </clipPath>
    <clipPath
       clipPathUnits="userSpaceOnUse"
       id="clipPath5079">
      <path
         inkscape:connector-curvature="0"
         d="m 146.15,103.883 51.804,0 0,5.778 -51.804,0 0,-5.778 z"
         id="path5081" />
    </clipPath>
    <clipPath
       clipPathUnits="userSpaceOnUse"
       id="clipPath5063">
      <path
         inkscape:connector-curvature="0"
         d="m 146.155,103.883 51.799,0 0,5.778 -51.799,0 0,-5.778 z"
         id="path5065" />
    </clipPath>
    <clipPath
       clipPathUnits="userSpaceOnUse"
       id="clipPath5051">
      <path
         inkscape:connector-curvature="0"
         d="m 146.15,103.883 51.804,0 0,5.778 -51.804,0 0,-5.778 z"
         id="path5053" />
    </clipPath>
    <linearGradient
       x1="0"
       y1="0"
       x2="1"
       y2="0"
       gradientUnits="userSpaceOnUse"
       gradientTransform="matrix(27.798941,0,0,-27.798941,326.89319,406.27909)"
       spreadMethod="pad"
       id="linearGradient5167">
      <stop
         style="stop-opacity:1;stop-color:#ec008c"
         offset="0"
         id="stop5169" />
      <stop
         style="stop-opacity:1;stop-color:#8d188f"
         offset="1"
         id="stop5171" />
    </linearGradient>
    <clipPath
       clipPathUnits="userSpaceOnUse"
       id="clipPath4107">
      <path
         inkscape:connector-curvature="0"
         d="m 0,0 419.528,0 0,595.276 L 0,595.276 0,0 z"
         id="path4109" />
    </clipPath>
    <clipPath
       clipPathUnits="userSpaceOnUse"
       id="clipPath4209">
      <path
         inkscape:connector-curvature="0"
         d="m 0,0 419.528,0 0,595.276 L 0,595.276 0,0 z"
         id="path4211" />
    </clipPath>
    <clipPath
       clipPathUnits="userSpaceOnUse"
       id="clipPath4195">
      <path
         inkscape:connector-curvature="0"
         d="m 0,0 419.528,0 0,595.276 L 0,595.276 0,0 z"
         id="path4197" />
    </clipPath>
    <clipPath
       clipPathUnits="userSpaceOnUse"
       id="clipPath4031">
      <path
         inkscape:connector-curvature="0"
         d="m 314.316,163.261 48.044,0 0,7.607 -48.044,0 0,-7.607 z"
         id="path4033" />
    </clipPath>
    <clipPath
       clipPathUnits="userSpaceOnUse"
       id="clipPath5385">
      <path
         inkscape:connector-curvature="0"
         d="m 325.774,129.138 27.307,0 0,24.515 -27.307,0 0,-24.515 z"
         id="path5387" />
    </clipPath>
    <clipPath
       clipPathUnits="userSpaceOnUse"
       id="clipPath11528">
      <path
         inkscape:connector-curvature="0"
         d="m 161.294,111.713 32.726,0 0,18.866 -32.726,0 0,-18.866 z"
         id="path11530" />
    </clipPath>
  </defs>
  <sodipodi:namedview
     id="base"
     pagecolor="#ffffff"
     bordercolor="#666666"
     borderopacity="1.0"
     inkscape:pageopacity="0.0"
     inkscape:pageshadow="2"
     inkscape:zoom="0.28198242"
     inkscape:cx="878.26524"
     inkscape:cy="-434.31538"
     inkscape:document-units="px"
     inkscape:current-layer="layer1"
     showgrid="false"
     fit-margin-left="0.5"
     fit-margin-bottom="0.5"
     fit-margin-top="0.5"
     fit-margin-right="0.5"
     inkscape:window-width="1057"
     inkscape:window-height="1022"
     inkscape:window-x="854"
     inkscape:window-y="-4"
     inkscape:window-maximized="0" />
  <metadata
     id="metadata5562">
    <rdf:RDF>
      <cc:Work
         rdf:about="">
        <dc:format>image/svg+xml</dc:format>
        <dc:type
           rdf:resource="http://purl.org/dc/dcmitype/StillImage" />
        <dc:title></dc:title>
      </cc:Work>
    </rdf:RDF>
  </metadata>
  <g
     inkscape:label="Layer 1"
     inkscape:groupmode="layer"
     id="layer1"
     transform="translate(-2843.1211,2248.7721)">
    <g
       id="g11504"
       transform="matrix(30.526896,0,0,-30.526896,2898.5964,-2248.2721)">
      <path
         inkscape:connector-curvature="0"
         d="m 0,0 0,-2.057 9.849,0 L 8.047,0 0,0 z"
         style="fill:#ff8c4d;fill-opacity:1;fill-rule:nonzero;stroke:none"
         id="path11506" />
    </g>
    <g
       id="g11508"
       transform="matrix(30.526896,0,0,-30.526896,2843.6211,-2248.2721)">
      <path
         inkscape:connector-curvature="0"
         d="M 0,0 0,-6.708 1.801,-8.765 1.801,0 0,0 z"
         style="fill:#ff5a00;fill-opacity:1;fill-rule:nonzero;stroke:none"
         id="path11510" />
    </g>
    <g
       id="g11512"
       transform="matrix(30.526896,0,0,-30.526896,3486.9303,-1735.1639)">
      <path
         inkscape:connector-curvature="0"
         d="m 0,0 1.802,-2.057 8.047,0 L 9.849,0 0,0 z"
         style="fill:#ff8c4d;fill-opacity:1;fill-rule:nonzero;stroke:none"
         id="path11514" />
    </g>
    <g
       id="g11516"
       transform="matrix(30.526896,0,0,-30.526896,3787.5811,-1672.3566)">
      <path
         inkscape:connector-curvature="0"
         d="m 0,0 1.803,0 0,6.707 L 0,8.764 0,0 z"
         style="fill:#ff5a00;fill-opacity:1;fill-rule:nonzero;stroke:none"
         id="path11518" />
    </g>
    <g
       id="g11520"
       transform="matrix(30.526896,0,0,-30.526896,3017.0188,-2096.7342)">
      <path
         inkscape:connector-curvature="0"
         d="m 0,0 -1.092,0 0,-3.985 2.807,0 0,1.001 L 0,-2.984 0,0 z"
         style="fill:#ff5a00;fill-opacity:1;fill-rule:nonzero;stroke:none"
         id="path11522" />
    </g>
    <g
       transform="matrix(30.526896,0,0,-30.526896,-2080.1963,1737.8787)"
       id="g11524">
      <g
         id="g11526"
         clip-path="url(#clipPath11528)">
        <g
           id="g11532"
           transform="translate(170.9904,121.5813)">
          <path
             inkscape:connector-curvature="0"
             d="m 0,0 c 1.153,0 2.057,0.897 2.057,2.041 0,1.144 -0.904,2.04 -2.057,2.04 -1.153,0 -2.057,-0.896 -2.057,-2.04 C -2.057,0.897 -1.153,0 0,0 M 0,3.07 C 0.556,3.07 0.944,2.647 0.944,2.041 0.944,1.435 0.556,1.012 0,1.012 c -0.556,0 -0.944,0.423 -0.944,1.029 0,0.606 0.388,1.029 0.944,1.029"
             style="fill:#ff5a00;fill-opacity:1;fill-rule:nonzero;stroke:none"
             id="path11534" />
        </g>
        <g
           id="g11536"
           transform="translate(177.1136,121.5877)">
          <path
             inkscape:connector-curvature="0"
             d="m 0,0 0,4.04 -1.044,0 0.002,-1.812 -2.424,1.869 0,-4.041 1.044,0 L -2.423,1.861 0,0 z"
             style="fill:#ff5a00;fill-opacity:1;fill-rule:nonzero;stroke:none"
             id="path11538" />
        </g>
        <g
           id="g11540"
           transform="translate(189.8405,125.6282)">
          <path
             inkscape:connector-curvature="0"
             d="m 0,0 -1.044,0 0.002,-1.812 -2.424,1.869 0,-4.042 1.044,0 -10e-4,1.806 L 0,-4.041 0,0 z"
             style="fill:#ff5a00;fill-opacity:1;fill-rule:nonzero;stroke:none"
             id="path11542" />
        </g>
        <g
           id="g11544"
           transform="translate(179.1483,125.6142)">
          <path
             inkscape:connector-curvature="0"
             d="m 0,0 -1.29,0 0,-3.985 1.29,0 c 1.23,0 2.089,0.82 2.089,1.993 C 2.089,-0.819 1.23,0 0,0 m -0.199,-1.001 0.162,0 c 0.833,0 1.008,-0.539 1.008,-0.991 0,-0.453 -0.175,-0.992 -1.008,-0.992 l -0.162,0 0,1.983 z"
             style="fill:#ff5a00;fill-opacity:1;fill-rule:nonzero;stroke:none"
             id="path11546" />
        </g>
        <g
           id="g11548"
           transform="translate(183.7507,125.6625)">
          <path
             inkscape:connector-curvature="0"
             d="m 0,0 c -1.153,0 -2.056,-0.896 -2.056,-2.041 0,-1.144 0.903,-2.04 2.056,-2.04 1.153,0 2.057,0.896 2.057,2.04 C 2.057,-0.896 1.153,0 0,0 m 0,-3.07 c -0.555,0 -0.944,0.424 -0.944,1.029 0,0.607 0.389,1.03 0.944,1.03 0.556,0 0.944,-0.423 0.944,-1.03 C 0.944,-2.646 0.556,-3.07 0,-3.07"
             style="fill:#ff5a00;fill-opacity:1;fill-rule:nonzero;stroke:none"
             id="path11550" />
        </g>
        <g
           id="g11552"
           transform="translate(166.9746,120.0794)">
          <path
             inkscape:connector-curvature="0"
             d="m 0,0 -1.092,0 0,-3.985 2.807,0 0,1.001 L 0,-2.984 0,0 z"
             style="fill:#ff5a00;fill-opacity:1;fill-rule:nonzero;stroke:none"
             id="path11554" />
        </g>
        <path
           inkscape:connector-curvature="0"
           d="m 169.111,116.095 1.092,0 0,3.985 -1.092,0 0,-3.985 z"
           style="fill:#ff5a00;fill-opacity:1;fill-rule:nonzero;stroke:none"
           id="path11556" />
        <g
           id="g11558"
           transform="translate(172.5686,118.2295)">
          <path
             inkscape:connector-curvature="0"
             d="m 0,0 -0.933,1.85 -1.19,0 2.116,-4.07 2.032,4.07 -1.111,0 L 0,0 z"
             style="fill:#ff5a00;fill-opacity:1;fill-rule:nonzero;stroke:none"
             id="path11560" />
        </g>
        <g
           id="g11562"
           transform="translate(174.8447,116.0947)">
          <path
             inkscape:connector-curvature="0"
             d="m 0,0 2.882,0 0,1.001 -1.79,0 0,0.505 1.596,0 0,0.984 -1.596,0 0,0.494 1.79,0 0,1.001 L 0,3.985 0,0 z"
             style="fill:#ff5a00;fill-opacity:1;fill-rule:nonzero;stroke:none"
             id="path11564" />
        </g>
      </g>
    </g>
  </g>
</svg>
