<?xml version="1.0" encoding="utf-8"?>
<!-- Generator: Adobe Illustrator 16.0.0, SVG Export Plug-In . SVG Version: 6.00 Build 0)  -->
<!DOCTYPE svg PUBLIC "-//W3C//DTD SVG 1.1//EN" "http://www.w3.org/Graphics/SVG/1.1/DTD/svg11.dtd">
<svg version="1.1" id="Group_1_1_" xmlns="http://www.w3.org/2000/svg" xmlns:xlink="http://www.w3.org/1999/xlink" x="0px" y="0px"
	 width="380px" height="380px" viewBox="0 0 380 380" enable-background="new 0 0 380 380" xml:space="preserve">

<path fill="#000000" d="M206.06,29.634c0.196-1.213,0.371-2.417,0.371-3.688c0-14.524-11.781-26.305-26.304-26.305
	c-14.529,0-26.322,11.781-26.322,26.305c0,1.759,0.203,3.473,0.527,5.142c-44.58,11.275-62.426,45.933-62.426,45.933H274.54
	C274.54,77.021,255.171,39.08,206.06,29.634L206.06,29.634z"/>
<polygon fill="#000000" points="174.451,273.737 205.304,273.737 205.304,264.395 174.451,264.395 174.451,246.422 205.304,246.422
	205.304,237.093 174.451,237.093 174.451,216.828 205.304,216.828 205.304,207.487 174.451,207.487 174.451,189.17 205.304,189.17
	205.304,179.828 174.451,179.828 174.451,163.72 205.304,163.72 205.304,154.39 174.451,154.39 174.451,133.93 164.122,133.93
	164.122,294.198 174.451,294.198 174.451,273.737 "/>
<path fill="#000000" d="M181.695,106.266c29.232,0,52.958,46.661,52.958,104.208c0,57.535-23.726,104.195-52.958,104.195
	c-29.256,0-52.969-46.66-52.969-104.195C128.726,152.926,152.439,106.266,181.695,106.266L181.695,106.266z M33.069,201.084
	c0.645-23.909,16.493-38.566,32.009-47.24c-5.583,25.747-10.7,59.872-13.1,103.383C41.649,243.121,32.453,224.02,33.069,201.084
	L33.069,201.084z M211.602,329.809c50.063,0,94.285,0,103.185,0c8.237-106.276-11.351-175.408-11.351-175.408
	s40.234-25.793,46.417-64.995c-50.554,0-264.122,0-264.122,0s-4.236,7.687-9.732,23.975c-31.068,9.661-74.586,35.965-75.957,86.797
	c-1.406,52.47,32.957,88.695,50.495,103.742c-0.047,8.4-0.07,16.929,0.093,25.898c12.896,0,52.878,0,98.017,0v11.352H39.808v39.189
	h286.831V341.16h-115.05v-11.352H211.602L211.602,329.809z"/>
</svg>
